<?xml version="1.0" standalone="no"?><!DOCTYPE svg PUBLIC "-//W3C//DTD SVG 1.1//EN" "http://www.w3.org/Graphics/SVG/1.1/DTD/svg11.dtd"><svg t="1656830182695" class="icon" viewBox="0 0 1024 1024" version="1.1" xmlns="http://www.w3.org/2000/svg" p-id="4111" xmlns:xlink="http://www.w3.org/1999/xlink" width="200" height="200"><defs><style type="text/css"></style></defs><path d="M849.580266 1024H174.713453c-38.477101 0-69.904962-31.329955-69.904963-69.904962V69.904962c0-38.575007 31.329955-69.904962 69.904963-69.904962h674.866813c38.477101 0 69.904962 31.329955 69.904962 69.904962V954.192944c-0.097906 38.477101-31.427861 69.807056-69.904962 69.807056zM174.713453 31.427861c-21.245626 0-38.575007 17.329381-38.575008 38.575007V954.192944c0 21.245626 17.329381 38.575007 38.575008 38.575007h674.866813c21.245626 0 38.575007-17.329381 38.575007-38.575007V69.904962c0-21.245626-17.329381-38.575007-38.575007-38.575007H174.713453z" p-id="4112"></path><path d="M266.451477 234.28932a25.847213 25.749307 0 1 0 51.694426 0 25.847213 25.749307 0 1 0-51.694426 0Z" p-id="4113"></path><path d="M750.890907 253.185199H389.225739c-8.615738 0-15.664978-7.04924-15.664978-15.664977s7.04924-15.664978 15.664978-15.664978H750.890907c8.615738 0 15.664978 7.04924 15.664978 15.664978s-7.04924 15.664978-15.664978 15.664977z" p-id="4114"></path><path d="M266.451477 419.49537a25.847213 25.749307 0 1 0 51.694426 0 25.847213 25.749307 0 1 0-51.694426 0Z" p-id="4115"></path><path d="M750.890907 438.293344H389.225739c-8.615738 0-15.664978-7.04924-15.664978-15.664978s7.04924-15.664978 15.664978-15.664978H750.890907c8.615738 0 15.664978 7.04924 15.664978 15.664978s-7.04924 15.664978-15.664978 15.664978z" p-id="4116"></path><path d="M266.451477 604.602536a25.847213 25.749307 0 1 0 51.694426 0 25.847213 25.749307 0 1 0-51.694426 0Z" p-id="4117"></path><path d="M750.890907 623.498415H389.225739c-8.615738 0-15.664978-7.04924-15.664978-15.664978s7.04924-15.664978 15.664978-15.664977H750.890907c8.615738 0 15.664978 7.04924 15.664978 15.664977s-7.04924 15.664978-15.664978 15.664978z" p-id="4118"></path><path d="M266.451477 789.808586a25.847213 25.749307 0 1 0 51.694426 0 25.847213 25.749307 0 1 0-51.694426 0Z" p-id="4119"></path><path d="M750.890907 808.704465H389.225739c-8.615738 0-15.664978-7.04924-15.664978-15.664977s7.04924-15.664978 15.664978-15.664978H750.890907c8.615738 0 15.664978 7.04924 15.664978 15.664978s-7.04924 15.664978-15.664978 15.664977z" fill="#ffffff" p-id="4120"></path></svg>